<svg width="80" height="80" viewBox="0 0 80 80" fill="none" xmlns="http://www.w3.org/2000/svg">
<path d="M35.8222 50.9999H9.64444V36.5332H35.8222V50.9999Z" fill="#CDD0D5"/>
<circle cx="9.98889" cy="41.0113" r="9.98889" fill="#CDD0D5"/>
<circle cx="24.1111" cy="33.0889" r="13.0889" fill="#CDD0D5"/>
<circle cx="34.7889" cy="39.6333" r="11.3667" fill="#CDD0D5"/>
<circle cx="54.5" cy="31.5" r="25.5" fill="url(#paint0_linear_226_454)" fill-opacity="0.4"/>
<path d="M51.3244 10.7221C53.0345 8.86575 55.9655 8.86575 57.6756 10.7221C58.807 11.9502 60.545 12.4159 62.1387 11.918C64.5479 11.1654 67.0863 12.6309 67.6391 15.0937C68.0048 16.7229 69.2771 17.9952 70.9063 18.3609C73.369 18.9137 74.8345 21.452 74.0819 23.8612C73.584 25.455 74.0497 27.193 75.2778 28.3243C77.1342 30.0344 77.1342 32.9654 75.2778 34.6755C74.0497 35.8068 73.584 37.5448 74.0819 39.1386C74.8345 41.5478 73.369 44.0861 70.9063 44.639C69.2771 45.0047 68.0048 46.277 67.6391 47.9062C67.0863 50.3689 64.5479 51.8344 62.1387 51.0818C60.545 50.5839 58.807 51.0496 57.6756 52.2777C55.9655 54.1341 53.0345 54.1341 51.3244 52.2777C50.1931 51.0496 48.4551 50.5839 46.8613 51.0818C44.4521 51.8344 41.9138 50.3689 41.361 47.9062C40.9953 46.277 39.723 45.0047 38.0938 44.639C35.631 44.0861 34.1655 41.5478 34.9182 39.1386C35.416 37.5448 34.9503 35.8068 33.7223 34.6755C31.8659 32.9654 31.8659 30.0344 33.7223 28.3243C34.9503 27.193 35.416 25.455 34.9182 23.8612C34.1655 21.452 35.631 18.9137 38.0938 18.3609C39.723 17.9952 40.9953 16.7229 41.361 15.0936C41.9138 12.6309 44.4521 11.1654 46.8613 11.918C48.4551 12.4159 50.1931 11.9502 51.3244 10.7221Z" fill="url(#paint1_radial_226_454)"/>
<path d="M58.7334 71.9998H22.4222V51.9331H58.7334V71.9998Z" fill="#D3D5DD"/>
<circle cx="22.9" cy="58.1446" r="13.8556" fill="url(#paint2_radial_226_454)"/>
<circle cx="42.4889" cy="47.1556" r="18.1556" fill="url(#paint3_radial_226_454)"/>
<circle cx="57.3" cy="56.2335" r="15.7667" fill="url(#paint4_radial_226_454)"/>
<defs>
<linearGradient id="paint0_linear_226_454" x1="67.8875" y1="9.825" x2="42.7062" y2="54.7687" gradientUnits="userSpaceOnUse">
<stop stop-color="#FFDB11"/>
<stop offset="1" stop-color="#FFDB11" stop-opacity="0"/>
</linearGradient>
<radialGradient id="paint1_radial_226_454" cx="0" cy="0" r="1" gradientUnits="userSpaceOnUse" gradientTransform="translate(47.5262 21.2226) rotate(50.6307) scale(37.0334)">
<stop stop-color="#FFDB11"/>
<stop offset="1" stop-color="#FFBC0B"/>
</radialGradient>
<radialGradient id="paint2_radial_226_454" cx="0" cy="0" r="1" gradientUnits="userSpaceOnUse" gradientTransform="translate(15.7333 50.5002) rotate(37.9716) scale(24.8491)">
<stop stop-color="#ECEDF3"/>
<stop offset="1" stop-color="#D0D2DA"/>
</radialGradient>
<radialGradient id="paint3_radial_226_454" cx="0" cy="0" r="1" gradientUnits="userSpaceOnUse" gradientTransform="translate(33.8889 34.2556) rotate(48.8822) scale(32.8893 40.522)">
<stop stop-color="#ECEDF3"/>
<stop offset="1" stop-color="#D0D2DA"/>
</radialGradient>
<radialGradient id="paint4_radial_226_454" cx="0" cy="0" r="1" gradientUnits="userSpaceOnUse" gradientTransform="translate(52.0444 47.6335) rotate(51.1702) scale(25.1458)">
<stop stop-color="#ECEDF3"/>
<stop offset="1" stop-color="#D0D2DA"/>
</radialGradient>
</defs>
</svg>
