<svg width="80" height="80" viewBox="0 0 80 80" fill="none" xmlns="http://www.w3.org/2000/svg">
<path d="M39.369 22C41.2482 22 42.7721 23.5232 42.7723 25.4023V28.9014L45.5087 26.166C46.306 25.3688 47.5981 25.3687 48.3954 26.166C49.1926 26.9633 49.1926 28.2554 48.3954 29.0527L42.7723 34.6758V65.3896L48.3954 71.0127C49.1927 71.81 49.1927 73.1031 48.3954 73.9004C47.5981 74.6976 46.306 74.6975 45.5087 73.9004L42.7723 71.1641V75.7627C42.7723 77.642 41.2483 79.165 39.369 79.165C37.4899 79.1649 35.9667 77.6419 35.9667 75.7627V71.4248L33.4921 73.9004C32.6948 74.6977 31.4017 74.6977 30.6044 73.9004C29.8073 73.1031 29.8071 71.8099 30.6044 71.0127L35.9667 65.6504V34.415L30.6044 29.0527C29.8075 28.2555 29.8075 26.9632 30.6044 26.166C31.4017 25.3687 32.6948 25.3687 33.4921 26.166L35.9667 28.6396V25.4023C35.9669 23.5233 37.49 22.0001 39.369 22Z" fill="url(#paint0_linear_226_457)"/>
<path d="M64.1877 36.1778C65.1273 37.8052 64.5701 39.8866 62.9428 40.8264L59.9126 42.5759L63.6496 43.5779C64.7387 43.8698 65.3848 44.9888 65.093 46.0779C64.8011 47.1669 63.6821 47.813 62.593 47.5212L54.9118 45.4631L28.3128 60.82L26.2546 68.5012C25.9628 69.5904 24.8429 70.2369 23.7538 69.9451C22.6648 69.6532 22.0188 68.5341 22.3104 67.4451L23.312 63.7072L19.3295 66.0065C17.702 66.9461 15.6209 66.3878 14.6813 64.7603C13.7418 63.1329 14.2992 61.0523 15.9266 60.1126L19.6834 57.9437L16.3021 57.0384C15.213 56.7466 14.5665 55.6267 14.8583 54.5376C15.1502 53.4486 16.2701 52.8019 17.3591 53.0938L24.6842 55.0565L51.7348 39.4388L53.6975 32.1138C53.9895 31.0251 55.1086 30.3789 56.1975 30.6704C57.2866 30.9623 57.9332 32.0821 57.6413 33.1712L56.7364 36.5511L59.54 34.9325C61.1674 33.9931 63.2481 34.5505 64.1877 36.1778Z" fill="url(#paint1_linear_226_457)"/>
<path d="M64.319 64.7603C63.3794 66.3877 61.2982 66.9459 59.6708 66.0065L56.6405 64.257L57.6413 67.9944C57.9331 69.0835 57.287 70.2026 56.1979 70.4944C55.1088 70.7862 53.9898 70.1401 53.6979 69.051L51.6398 61.3698L25.0408 46.0129L17.3595 48.071C16.2704 48.3629 15.1506 47.7163 14.8587 46.6272C14.567 45.5382 15.2132 44.4191 16.3021 44.1272L20.04 43.1257L16.0574 40.8263C14.43 39.8867 13.873 37.8053 14.8126 36.1778C15.7523 34.5505 17.8329 33.9929 19.4603 34.9325L23.217 37.1014L22.3104 33.7205C22.0186 32.6314 22.6651 31.5116 23.7542 31.2197C24.8433 30.9281 25.9632 31.5746 26.2551 32.6636L28.2178 39.9886L55.2684 55.6063L62.5934 53.6436C63.6823 53.3521 64.8014 53.9982 65.0934 55.0869C65.3853 56.1761 64.7387 57.2959 63.6496 57.5877L60.27 58.494L63.0736 60.1126C64.7008 61.0523 65.2584 63.133 64.319 64.7603Z" fill="url(#paint2_linear_226_457)"/>
<rect x="9.92822" y="11" width="4" height="16" rx="2" fill="url(#paint3_linear_226_457)"/>
<rect x="17.8564" y="13.2681" width="4" height="16" rx="2" transform="rotate(60 17.8564 13.2681)" fill="url(#paint4_linear_226_457)"/>
<rect x="19.8564" y="21.2681" width="4" height="16" rx="2" transform="rotate(120 19.8564 21.2681)" fill="url(#paint5_linear_226_457)"/>
<rect x="66.9282" width="4" height="16" rx="2" fill="url(#paint6_linear_226_457)"/>
<rect x="74.8564" y="2.26807" width="4" height="16" rx="2" transform="rotate(60 74.8564 2.26807)" fill="url(#paint7_linear_226_457)"/>
<rect x="76.8564" y="10.2681" width="4" height="16" rx="2" transform="rotate(120 76.8564 10.2681)" fill="url(#paint8_linear_226_457)"/>
<defs>
<linearGradient id="paint0_linear_226_457" x1="39.5001" y1="22" x2="39.5001" y2="79.165" gradientUnits="userSpaceOnUse">
<stop stop-color="#58A3FE"/>
<stop offset="0.5" stop-color="#90C3FC"/>
<stop offset="1" stop-color="#58A3FE"/>
</linearGradient>
<linearGradient id="paint1_linear_226_457" x1="64.2533" y1="36.2914" x2="14.7469" y2="64.8739" gradientUnits="userSpaceOnUse">
<stop stop-color="#58A3FE"/>
<stop offset="0.5" stop-color="#90C3FC"/>
<stop offset="1" stop-color="#58A3FE"/>
</linearGradient>
<linearGradient id="paint2_linear_226_457" x1="64.2534" y1="64.8739" x2="14.747" y2="36.2914" gradientUnits="userSpaceOnUse">
<stop stop-color="#58A3FE"/>
<stop offset="0.5" stop-color="#90C3FC"/>
<stop offset="1" stop-color="#58A3FE"/>
</linearGradient>
<linearGradient id="paint3_linear_226_457" x1="11.9282" y1="11" x2="11.9282" y2="27" gradientUnits="userSpaceOnUse">
<stop stop-color="#58A3FE"/>
<stop offset="0.5" stop-color="#90C3FC"/>
<stop offset="1" stop-color="#58A3FE"/>
</linearGradient>
<linearGradient id="paint4_linear_226_457" x1="19.8564" y1="13.2681" x2="19.8564" y2="29.2681" gradientUnits="userSpaceOnUse">
<stop stop-color="#58A3FE"/>
<stop offset="0.5" stop-color="#90C3FC"/>
<stop offset="1" stop-color="#58A3FE"/>
</linearGradient>
<linearGradient id="paint5_linear_226_457" x1="21.8564" y1="21.2681" x2="21.8564" y2="37.2681" gradientUnits="userSpaceOnUse">
<stop stop-color="#58A3FE"/>
<stop offset="0.5" stop-color="#90C3FC"/>
<stop offset="1" stop-color="#58A3FE"/>
</linearGradient>
<linearGradient id="paint6_linear_226_457" x1="68.9282" y1="0" x2="68.9282" y2="16" gradientUnits="userSpaceOnUse">
<stop stop-color="#58A3FE"/>
<stop offset="0.5" stop-color="#90C3FC"/>
<stop offset="1" stop-color="#58A3FE"/>
</linearGradient>
<linearGradient id="paint7_linear_226_457" x1="76.8564" y1="2.26807" x2="76.8564" y2="18.2681" gradientUnits="userSpaceOnUse">
<stop stop-color="#58A3FE"/>
<stop offset="0.5" stop-color="#90C3FC"/>
<stop offset="1" stop-color="#58A3FE"/>
</linearGradient>
<linearGradient id="paint8_linear_226_457" x1="78.8564" y1="10.2681" x2="78.8564" y2="26.2681" gradientUnits="userSpaceOnUse">
<stop stop-color="#58A3FE"/>
<stop offset="0.5" stop-color="#90C3FC"/>
<stop offset="1" stop-color="#58A3FE"/>
</linearGradient>
</defs>
</svg>
