<svg width="80" height="80" viewBox="0 0 80 80" fill="none" xmlns="http://www.w3.org/2000/svg">
<path d="M62.7684 19.4002C64.7596 18.843 66.8581 18.7647 68.8856 19.1707C70.9135 19.5768 72.8203 20.4574 74.4364 21.7469C76.0529 23.0367 77.3326 24.6991 78.1532 26.5974C78.9742 28.4968 79.3074 30.568 79.118 32.6287C78.9287 34.6892 78.2239 36.665 77.0751 38.3855C75.9269 40.1052 74.3724 41.5148 72.5555 42.5027C70.7391 43.4904 68.7089 44.0309 66.6415 44.0838C66.607 44.0847 66.5725 44.0848 66.538 44.0848H5.08484C2.82876 44.0848 0.999878 42.2559 0.999878 39.9998C0.999878 37.7437 2.82876 35.9148 5.08484 35.9148H66.452C67.2307 35.892 67.9857 35.6874 68.6522 35.325C69.3236 34.96 69.8799 34.4503 70.2811 33.8494C70.6818 33.2493 70.9187 32.5728 70.9823 31.8807C71.0458 31.1889 70.935 30.4893 70.6542 29.8396C70.3729 29.189 69.9264 28.5999 69.3407 28.1326C68.7545 27.6649 68.0486 27.335 67.2821 27.1814C66.5151 27.0278 65.7199 27.0574 64.9696 27.2674C64.2197 27.4772 63.5463 27.8582 63.0028 28.365C61.3528 29.9036 58.768 29.8129 57.2294 28.1629C55.6908 26.5129 55.7806 23.928 57.4305 22.3894C58.9427 20.9794 60.7767 19.9575 62.7684 19.4002Z" fill="url(#paint0_linear_226_522)"/>
<path d="M33.7108 8.41119C35.4683 7.87046 37.3331 7.77001 39.1385 8.11822C40.944 8.46644 42.6373 9.25363 44.0663 10.4122C45.4956 11.5709 46.6168 13.0657 47.3241 14.7657C48.0313 16.4657 48.3019 18.3149 48.1102 20.1465C47.9184 21.9782 47.2707 23.7318 46.2284 25.2491C45.1862 26.7661 43.7825 27.9987 42.1473 28.8409C40.5292 29.6742 38.7319 30.0991 36.913 30.0831V30.084H5.08484C2.82876 30.084 0.999878 28.2552 0.999878 25.9991C1.00003 23.7431 2.82885 21.9141 5.08484 21.9141H36.913L36.9696 21.9151C37.4713 21.922 37.965 21.8053 38.4061 21.5782C38.8471 21.3511 39.2202 21.0216 39.494 20.6231C39.7676 20.2248 39.9348 19.7684 39.9843 19.296C40.0337 18.8238 39.9639 18.3461 39.7802 17.9044C39.5962 17.4623 39.3031 17.067 38.9218 16.7579C38.5403 16.4486 38.0834 16.2356 37.5917 16.1407C37.0997 16.0458 36.5907 16.0728 36.1132 16.2198C35.6359 16.3667 35.2077 16.6279 34.8641 16.9747C33.2763 18.5774 30.6895 18.5888 29.0868 17.001C27.4842 15.4133 27.4719 12.8274 29.0594 11.2247C30.3544 9.91756 31.9533 8.95198 33.7108 8.41119Z" fill="url(#paint1_linear_226_522)"/>
<path d="M57.001 49.916C58.8144 49.8999 60.6044 50.3292 62.2129 51.1679C63.8383 52.0155 65.2277 53.2538 66.2568 54.7705C67.2859 56.287 67.9228 58.0355 68.1113 59.8583C68.2998 61.6812 68.0335 63.5226 67.3369 65.2177C66.6403 66.9128 65.5348 68.4093 64.1182 69.5722C62.7013 70.7352 61.0171 71.5285 59.2178 71.8798C57.4187 72.2311 55.5607 72.13 53.8105 71.5849C52.0604 71.0398 50.4733 70.0677 49.1914 68.7578C47.6135 67.1452 47.6414 64.5583 49.2539 62.9804C50.8665 61.4029 53.4525 61.4315 55.0303 63.0439C55.3668 63.3878 55.7829 63.6417 56.2402 63.7841C56.6975 63.9265 57.1826 63.953 57.6523 63.8613C58.1222 63.7695 58.5631 63.5627 58.9346 63.2578C59.3061 62.9528 59.5967 62.559 59.7803 62.1123C59.9638 61.6655 60.0341 61.1793 59.9844 60.6982C59.9346 60.2172 59.7667 59.7562 59.4961 59.3574C59.2255 58.9587 58.8606 58.6348 58.4355 58.413C58.0103 58.1913 57.537 58.0782 57.0586 58.0849C57.0395 58.0852 57.0201 58.0859 57.001 58.0859H5.08496C2.82897 58.0859 1.00015 56.2569 1 54.0009C1 51.7448 2.82888 49.916 5.08496 49.916H57.001Z" fill="url(#paint2_linear_226_522)"/>
<defs>
<linearGradient id="paint0_linear_226_522" x1="74.9999" y1="23.4998" x2="2.49988" y2="41.4998" gradientUnits="userSpaceOnUse">
<stop stop-color="#3B8AE9"/>
<stop offset="0.5" stop-color="#58A3FE"/>
<stop offset="1" stop-color="#3B8AE9"/>
</linearGradient>
<linearGradient id="paint1_linear_226_522" x1="45.6539" y1="11.9532" x2="0.514324" y2="19.6312" gradientUnits="userSpaceOnUse">
<stop stop-color="#3B8AE9"/>
<stop offset="0.5" stop-color="#58A3FE"/>
<stop offset="1" stop-color="#3B8AE9"/>
</linearGradient>
<linearGradient id="paint2_linear_226_522" x1="64.587" y1="53.9537" x2="2.11392" y2="69.0855" gradientUnits="userSpaceOnUse">
<stop stop-color="#3B8AE9"/>
<stop offset="0.5" stop-color="#58A3FE"/>
<stop offset="1" stop-color="#3B8AE9"/>
</linearGradient>
</defs>
</svg>
