<svg width="80" height="80" viewBox="0 0 80 80" fill="none" xmlns="http://www.w3.org/2000/svg">
<g clip-path="url(#clip0_226_452)">
<circle cx="40" cy="40" r="40" fill="#FFDB11" fill-opacity="0.4"/>
<path d="M35.5871 6.79039C37.9635 4.21068 42.0365 4.21069 44.4129 6.79039L45.313 7.76747C46.8851 9.47404 49.3003 10.1212 51.5151 9.4293L52.7831 9.03317C56.131 7.98729 59.6583 10.0238 60.4265 13.4461L60.7175 14.7423C61.2257 17.0063 62.9937 18.7743 65.2577 19.2825L66.5539 19.5735C69.9762 20.3417 72.0127 23.869 70.9668 27.2169L70.5707 28.4849C69.8788 30.6997 70.526 33.1149 72.2325 34.687L73.2096 35.5871C75.7893 37.9635 75.7893 42.0365 73.2096 44.4129L72.2325 45.313C70.526 46.8851 69.8788 49.3003 70.5707 51.5151L70.9668 52.7831C72.0127 56.131 69.9762 59.6583 66.5539 60.4265L65.2577 60.7175C62.9937 61.2257 61.2257 62.9937 60.7175 65.2577L60.4265 66.5539C59.6583 69.9762 56.131 72.0127 52.7831 70.9668L51.5151 70.5707C49.3003 69.8788 46.8851 70.526 45.313 72.2325L44.4129 73.2096C42.0365 75.7893 37.9635 75.7893 35.5871 73.2096L34.687 72.2325C33.1149 70.526 30.6997 69.8788 28.4849 70.5707L27.2169 70.9668C23.869 72.0127 20.3417 69.9762 19.5735 66.5539L19.2825 65.2577C18.7743 62.9937 17.0063 61.2257 14.7423 60.7175L13.4461 60.4265C10.0238 59.6583 7.9873 56.131 9.03317 52.7831L9.4293 51.5151C10.1212 49.3003 9.47404 46.8851 7.76746 45.313L6.79039 44.4129C4.21068 42.0365 4.21069 37.9635 6.79039 35.5871L7.76747 34.687C9.47404 33.1149 10.1212 30.6997 9.4293 28.4849L9.03317 27.2169C7.9873 23.869 10.0238 20.3417 13.4461 19.5735L14.7423 19.2825C17.0063 18.7743 18.7743 17.0063 19.2825 14.7423L19.5735 13.4461C20.3417 10.0238 23.869 7.9873 27.2169 9.03317L28.4849 9.4293C30.6997 10.1212 33.1149 9.47404 34.687 7.76746L35.5871 6.79039Z" fill="url(#paint0_radial_226_452)"/>
</g>
<defs>
<radialGradient id="paint0_radial_226_452" cx="0" cy="0" r="1" gradientUnits="userSpaceOnUse" gradientTransform="translate(29.0606 23.8788) rotate(50.6307) scale(58.0916)">
<stop stop-color="#FFDB11"/>
<stop offset="1" stop-color="#FFBC0B"/>
</radialGradient>
<clipPath id="clip0_226_452">
<rect width="80" height="80" fill="white"/>
</clipPath>
</defs>
</svg>
