<svg width="80" height="80" viewBox="0 0 80 80" fill="none" xmlns="http://www.w3.org/2000/svg">
<rect x="22.4199" y="36.4888" width="4" height="39" rx="2" fill="url(#paint0_linear_226_456)"/>
<path d="M60.9851 55.3131H17.8806V31.4922H60.9851V55.3131Z" fill="#BDC3CD"/>
<circle cx="18.4478" cy="38.8662" r="16.4478" fill="url(#paint1_radial_226_456)"/>
<circle cx="41.7015" cy="25.8208" r="21.5522" fill="url(#paint2_radial_226_456)"/>
<circle cx="59.2836" cy="36.5968" r="18.7164" fill="url(#paint3_radial_226_456)"/>
<rect x="12.5635" y="49.9731" width="4" height="29" rx="2" fill="url(#paint4_linear_226_456)"/>
<rect x="32.1806" y="38.6064" width="4" height="29" rx="2" fill="url(#paint5_linear_226_456)"/>
<rect x="32.2896" y="70.6064" width="4" height="9" rx="2" fill="url(#paint6_linear_226_456)"/>
<path d="M64.75 32.6001L42 55.3127H55.125L48.5625 70.6001L70 49.1978H59.5L64.75 32.6001Z" fill="url(#paint7_radial_226_456)"/>
<defs>
<linearGradient id="paint0_linear_226_456" x1="24.4199" y1="36.4888" x2="24.4199" y2="75.4888" gradientUnits="userSpaceOnUse">
<stop stop-color="#58A3FE"/>
<stop offset="1" stop-color="#90C3FC"/>
</linearGradient>
<radialGradient id="paint1_radial_226_456" cx="0" cy="0" r="1" gradientUnits="userSpaceOnUse" gradientTransform="translate(12.9652 29.8947) rotate(51.1702) scale(26.2321)">
<stop stop-color="#D0D2DA"/>
<stop offset="1" stop-color="#BDC3CD"/>
</radialGradient>
<radialGradient id="paint2_radial_226_456" cx="0" cy="0" r="1" gradientUnits="userSpaceOnUse" gradientTransform="translate(34.5175 14.065) rotate(51.1702) scale(34.3731)">
<stop stop-color="#D0D2DA"/>
<stop offset="1" stop-color="#BDC3CD"/>
</radialGradient>
<radialGradient id="paint3_radial_226_456" cx="0" cy="0" r="1" gradientUnits="userSpaceOnUse" gradientTransform="translate(53.0448 26.3878) rotate(51.1702) scale(29.8503)">
<stop stop-color="#D0D2DA"/>
<stop offset="1" stop-color="#BDC3CD"/>
</radialGradient>
<linearGradient id="paint4_linear_226_456" x1="14.5635" y1="49.9731" x2="14.5635" y2="78.9731" gradientUnits="userSpaceOnUse">
<stop stop-color="#58A3FE"/>
<stop offset="1" stop-color="#90C3FC"/>
</linearGradient>
<linearGradient id="paint5_linear_226_456" x1="34.1806" y1="38.6064" x2="34.1806" y2="67.6064" gradientUnits="userSpaceOnUse">
<stop stop-color="#58A3FE"/>
<stop offset="1" stop-color="#90C3FC"/>
</linearGradient>
<linearGradient id="paint6_linear_226_456" x1="34.2896" y1="70.6064" x2="34.2896" y2="79.6064" gradientUnits="userSpaceOnUse">
<stop stop-color="#58A3FE"/>
<stop offset="1" stop-color="#90C3FC"/>
</linearGradient>
<radialGradient id="paint7_radial_226_456" cx="0" cy="0" r="1" gradientTransform="matrix(13.5758 22.4545 -16.5455 18.4242 51.9697 43.5395)" gradientUnits="userSpaceOnUse">
<stop stop-color="#FFDB11"/>
<stop offset="1" stop-color="#FFBC0B"/>
</radialGradient>
</defs>
</svg>
