<svg width="23" height="20" viewBox="0 0 23 20" fill="none" xmlns="http://www.w3.org/2000/svg">
<path fill-rule="evenodd" clip-rule="evenodd" d="M16.7264 11.5965C16.5599 11.3636 16.368 11.1343 16.1435 10.9191L16.893 10.6686L19.525 8.61533L19.6879 6.79137L19.6192 6.66084L19.6047 6.61497L19.5974 6.59028L19.5902 6.55853L19.5612 6.47033L19.2933 5.7859L16.3933 5.02034L14.3695 4.3853L12.9539 1.20661L11.5311 0.642139L11.3247 0.620972L11.2089 0.635084H10.5862L8.43924 2.80831L7.84911 4.93919L3.43942 5.39077L2.91445 6.49502L2.86739 6.67142L2.88187 7.54636L4.88397 10.0018L6.41541 10.8027C6.14388 11.0496 5.91579 11.3107 5.72029 11.5788C2.29898 12.3479 2.99772 19.0757 7.22639 19.7143C8.45372 19.9013 9.78242 20.0001 11.1727 20.0001C12.7584 20.0001 14.2645 19.8695 15.633 19.6296C19.5902 18.9381 20.0898 12.3691 16.7192 11.5965H16.7264Z" fill="white"/>
<path fill-rule="evenodd" clip-rule="evenodd" d="M9.17419 9.26086C10.5319 8.93629 11.9511 8.93982 13.3051 9.26792L12.7765 7.23934L12.2733 7.22876L12.19 7.83557H11.5926L11.5239 7.23934L10.9554 7.22876L10.8867 7.83557L10.2857 7.82851L10.2133 7.23229H9.70277L9.17057 9.25734L9.17419 9.26086Z" fill="#FAA61A"/>
<path fill-rule="evenodd" clip-rule="evenodd" d="M16.7264 11.5964C18.1203 13.5614 17.6388 15.9604 17.6388 15.9604C17.6388 15.9604 15.1045 16.3944 12.9756 14.6692C11.6252 13.5755 11.2234 12.3372 11.2234 12.3337C11.2234 12.3372 10.8179 13.5755 9.47106 14.6692C7.34225 16.3944 4.80794 15.9604 4.80794 15.9604C4.80794 15.9604 4.3228 13.5403 5.73115 11.5752C2.30984 12.3443 0 13.8119 0 15.5018C0 17.728 4.00782 19.5696 9.27556 19.9329V16.9624H10.1227V19.9788C10.3327 19.9859 10.5463 19.9929 10.7563 19.9964V15.7629H11.6035V19.9964C11.8207 19.9964 12.0343 19.9894 12.2443 19.9788V16.9624H13.0915V19.9329C18.3592 19.5696 22.3707 17.728 22.3707 15.5018C22.3707 13.826 20.097 12.369 16.7264 11.5928V11.5964Z" fill="#0066B3"/>
<path fill-rule="evenodd" clip-rule="evenodd" d="M7.59568 4.31822C5.89045 3.99718 4.1273 4.31822 2.66464 5.22138C2.68274 5.68354 2.75877 6.1457 2.89635 6.59376C4.62692 5.26724 7.00917 5.07673 8.93886 6.11395C8.50079 3.99718 9.40952 1.83101 11.2487 0.627977C10.8541 0.36338 10.4305 0.15523 9.98155 0C8.65285 1.09014 7.79842 2.63539 7.5993 4.31822H7.59568ZM1.90073 7.57806C2.23381 8.37537 2.72981 9.09861 3.35253 9.70894C3.51183 9.86417 3.67112 10.0123 3.84129 10.1535C4.46762 10.6544 5.17361 11.046 5.93752 11.3106C6.2344 10.9508 6.60368 10.6156 7.05623 10.3158C6.06423 10.1182 5.14102 9.65602 4.40607 8.97866C3.69285 8.33304 3.1715 7.51102 2.89997 6.59728C2.52345 6.88305 2.19037 7.21468 1.90435 7.58158L1.90073 7.57806ZM14.8981 4.31822C14.699 2.63539 13.8446 1.09014 12.5122 0C12.0633 0.15523 11.6397 0.36338 11.2451 0.627977C13.0843 1.83454 13.9966 3.99718 13.5549 6.11395C15.4846 5.07673 17.8669 5.26724 19.6011 6.59376C19.735 6.1457 19.811 5.68354 19.8328 5.22138C18.3665 4.32175 16.5997 3.99718 14.9017 4.31822H14.8981ZM19.6011 6.59376C19.3259 7.50397 18.8082 8.32951 18.0877 8.97513C17.3528 9.6525 16.397 10.1252 15.4013 10.3228C15.8539 10.6227 16.2196 10.9649 16.5164 11.3247C17.2948 11.0602 18.0189 10.665 18.6525 10.1535C18.819 10.0123 18.9856 9.86417 19.1413 9.70894C19.764 9.09861 20.26 8.3789 20.5967 7.57806C20.307 7.21115 19.9703 6.87952 19.6011 6.59376Z" fill="#E11548"/>
</svg>
